# xmcd
#
# Track frame offsets:
#	150
#	19941
#	40044
#	60918
#	77079
#	91841
#	110277
#	125571
#	142960
#	158812
#
# Disc length: 2488 seconds
#
# Revision: 1
# Processed by: cddbd v1.5.1PL0 Copyright (c) Steve Scherf et al.
# Submitted via: audiograbber 1.82.02
#
DISCID=7109b60a
DTITLE=VELVET - Dieci Motivi
DYEAR=2004
DGENRE=Italian Pop/Rock
TTITLE0=Luciano ti odio
TTITLE1=Miele
TTITLE2=Ti direi
TTITLE3=Sette secondi
TTITLE4=Un altro brutto giorno
TTITLE5=Miss America
TTITLE6=Il mondo è fuori
TTITLE7=24h
TTITLE8=Non è sempre un gioco
TTITLE9=I tuoi guai (e ne hai)
EXTD=
EXTT0=
EXTT1=
EXTT2=
EXTT3=
EXTT4=
EXTT5=
EXTT6=
EXTT7=
EXTT8=
EXTT9=
PLAYORDER=
